<?xml version="1.0" standalone="no"?>
<!DOCTYPE svg PUBLIC "-//W3C//DTD SVG 20010904//EN"
 "http://www.w3.org/TR/2001/REC-SVG-20010904/DTD/svg10.dtd">
<svg version="1.0" xmlns="http://www.w3.org/2000/svg"
 width="1640.000000pt" height="1859.000000pt" viewBox="0 0 1640.000000 1859.000000"
 preserveAspectRatio="xMidYMid meet" style="">

<g transform="translate(0.000000,1859.000000) scale(0.100000,-0.100000)"
fill="#ffffff" stroke="none">
<path d="M3303 18556 c-16 -13 -205 -275 -421 -583 -217 -307 -614 -871 -884
-1253 -582 -825 -580 -823 -573 -841 3 -8 67 -34 143 -58 234 -74 424 -169
627 -312 108 -78 302 -267 378 -369 116 -158 207 -350 263 -555 25 -93 27
-116 32 -352 4 -231 2 -261 -18 -354 -63 -294 -196 -526 -436 -760 -329 -319
-803 -559 -1410 -712 -302 -77 -428 -98 -730 -127 -113 -10 -212 -24 -219 -30
-25 -21 -36 -114 -46 -400 -11 -291 -4 -936 11 -1130 28 -343 41 -482 50 -540
6 -36 17 -127 25 -203 25 -229 113 -733 186 -1062 398 -1792 1197 -3451 2338
-4855 497 -612 1075 -1199 1676 -1701 919 -768 1902 -1403 3040 -1964 472
-232 814 -385 862 -385 40 0 225 81 633 277 612 295 1139 583 1650 901 1532
954 2819 2155 3783 3529 1003 1429 1690 3124 1972 4863 33 205 92 662 100 775
3 50 10 119 16 155 5 36 14 166 19 290 6 124 14 313 20 420 12 239 -16 941
-40 1004 -12 34 -49 42 -260 62 -395 36 -693 100 -1073 231 -719 247 -1205
632 -1407 1115 -80 193 -105 347 -97 602 8 267 53 458 157 669 210 425 598
734 1160 923 98 33 126 46 128 61 2 12 -115 187 -321 479 -178 252 -590 837
-915 1299 -326 462 -606 857 -623 878 l-30 37 -4869 0 -4868 0 -29 -24z m9525
-429 c12 -6 78 -91 145 -187 68 -96 352 -499 632 -895 622 -880 656 -931 649
-949 -3 -9 -43 -36 -87 -62 -638 -367 -1028 -937 -1098 -1603 -18 -171 -6
-527 21 -656 165 -783 811 -1378 1870 -1723 269 -88 511 -144 805 -188 97 -14
123 -22 142 -40 l23 -23 0 -423 c-1 -233 -5 -470 -10 -528 -5 -58 -14 -172
-20 -255 -20 -297 -100 -893 -166 -1245 -245 -1301 -757 -2642 -1432 -3755
-723 -1191 -1623 -2202 -2779 -3123 -870 -693 -1945 -1345 -3071 -1862 -273
-125 -264 -124 -452 -33 -69 33 -208 100 -310 148 -495 233 -1159 601 -1665
923 -853 542 -1539 1090 -2240 1787 -1165 1160 -2036 2513 -2614 4062 -186
498 -380 1166 -475 1633 -50 245 -135 751 -151 892 -9 79 -22 190 -30 248 -28
199 -46 506 -56 975 -12 513 -9 568 24 590 12 7 114 28 227 45 332 52 703 153
1000 273 710 286 1181 676 1435 1185 139 279 205 620 185 947 -30 463 -163
829 -428 1172 -157 202 -428 432 -673 571 -72 41 -93 64 -85 95 5 22 301 446
1061 1522 314 445 330 466 358 482 32 18 9232 18 9265 0z"/>
<path d="M3676 17818 c-19 -18 -132 -172 -252 -343 -120 -170 -360 -512 -534
-760 -174 -247 -327 -467 -339 -488 -23 -37 -23 -38 -5 -59 11 -11 60 -51 109
-87 488 -364 815 -881 915 -1445 24 -138 40 -330 40 -491 0 -474 -148 -907
-443 -1300 -95 -126 -354 -378 -502 -488 -456 -339 -1047 -585 -1735 -722
-167 -34 -186 -43 -194 -92 -7 -43 10 -840 18 -863 3 -8 10 -86 16 -172 6 -86
24 -262 40 -390 263 -2043 1064 -3956 2316 -5535 289 -364 504 -601 891 -983
467 -462 832 -777 1344 -1157 697 -518 1350 -916 2209 -1347 421 -212 583
-287 619 -288 37 -1 171 59 541 243 1094 543 2026 1138 2836 1811 333 277 764
675 998 923 1100 1165 1865 2387 2406 3840 235 632 419 1334 534 2035 103 627
141 1037 153 1665 4 229 3 242 -15 258 -13 12 -88 32 -215 58 -438 88 -828
220 -1182 399 -524 264 -898 585 -1151 988 -312 496 -399 1129 -243 1754 125
503 435 962 864 1283 62 46 121 95 129 107 14 20 14 25 -4 54 -22 38 -541 778
-840 1199 -113 159 -221 312 -240 339 -18 27 -41 57 -52 68 -17 17 -156 18
-4508 18 l-4490 0 -34 -32z m7625 -1838 c209 -11 350 -30 518 -71 126 -30 151
-41 151 -65 0 -15 -455 -565 -559 -677 -35 -37 -74 -70 -88 -73 -14 -4 -55 4
-101 19 -115 38 -232 50 -422 44 -257 -8 -451 -55 -737 -177 -497 -214 -810
-478 -1172 -992 -233 -331 -551 -939 -741 -1418 -23 -58 -54 -132 -69 -165
-16 -33 -43 -100 -60 -150 -65 -179 -102 -233 -236 -341 -79 -63 -98 -74 -110
-64 -21 18 -20 29 31 258 157 704 357 1344 596 1907 253 593 566 1079 875
1357 341 305 965 551 1540 607 123 12 376 12 584 1z m334 -1034 c0 -76 3 -90
20 -103 39 -30 158 -82 213 -94 81 -17 268 -7 380 21 121 29 129 23 85 -63
-45 -86 -104 -155 -195 -226 -84 -66 -104 -102 -94 -169 11 -72 26 -340 36
-622 10 -302 15 -348 81 -775 66 -425 58 -498 -66 -613 -92 -87 -146 -106
-301 -105 -114 0 -125 2 -173 29 -72 39 -111 96 -202 301 -78 173 -184 383
-221 436 -23 32 -66 37 -91 9 -31 -34 -66 -128 -83 -222 -12 -66 -18 -150 -18
-275 l0 -180 37 -112 c21 -62 82 -199 135 -305 155 -307 191 -437 201 -733 9
-286 -4 -266 427 -606 149 -118 339 -267 423 -332 88 -68 166 -138 186 -165
69 -96 71 -183 7 -352 -47 -123 -67 -238 -58 -330 4 -36 34 -195 68 -355 58
-281 60 -294 56 -410 -4 -101 -10 -134 -35 -210 -45 -129 -335 -744 -378 -801
-53 -70 -149 -48 -255 56 -117 115 -159 288 -99 415 10 22 71 99 134 170 152
173 160 190 159 330 -2 115 -31 256 -58 284 -33 32 -65 -13 -97 -136 -23 -90
-63 -156 -132 -219 -60 -54 -203 -125 -307 -153 -120 -33 -342 -62 -513 -68
-210 -8 -202 -15 -194 162 8 187 48 303 128 367 27 22 53 32 105 39 80 11 122
6 223 -27 86 -28 107 -29 186 -9 140 36 244 109 315 221 132 209 208 438 170
509 -37 70 -262 98 -1010 125 -350 13 -389 18 -509 78 -131 64 -173 66 -311
14 -58 -22 -192 -76 -299 -121 -602 -255 -920 -373 -1151 -429 -185 -45 -589
-126 -800 -161 -225 -37 -269 -51 -313 -100 -31 -34 -39 -57 -82 -232 -53
-219 -86 -318 -155 -470 -72 -157 -94 -232 -94 -319 -1 -144 72 -251 356 -521
512 -488 533 -515 579 -782 12 -67 35 -158 51 -202 22 -58 31 -105 35 -170 5
-84 3 -97 -30 -195 -37 -112 -114 -294 -147 -348 -12 -19 -28 -32 -40 -32 -29
0 -182 150 -230 226 -22 35 -52 98 -67 141 -26 75 -27 87 -27 283 -1 237 10
204 -121 365 -93 113 -430 446 -517 510 -31 23 -135 81 -230 128 -116 57 -210
112 -285 166 -61 45 -120 81 -131 81 -11 0 -44 -20 -74 -45 -98 -84 -155 -173
-184 -288 -43 -164 41 -501 206 -832 78 -157 131 -230 345 -472 186 -210 227
-260 300 -373 98 -150 285 -494 285 -523 0 -32 -33 -59 -108 -88 -89 -35 -209
-31 -332 10 -202 68 -326 155 -381 266 -27 56 -32 79 -38 173 -7 132 -17 150
-109 196 -116 58 -146 100 -282 396 -36 80 -125 249 -197 375 -126 222 -371
668 -486 885 -66 126 -101 223 -93 263 3 16 50 97 105 180 149 229 194 329
206 454 8 80 -12 188 -48 266 -40 86 -147 226 -245 321 -100 98 -123 133 -170
268 -48 134 -63 234 -70 445 -5 137 -11 196 -20 205 -9 9 -49 13 -140 13 -121
0 -130 -1 -187 -30 -106 -53 -80 -84 103 -125 144 -32 149 -38 97 -117 -21
-31 -66 -112 -101 -178 -79 -153 -85 -197 -54 -375 44 -258 157 -697 263
-1025 80 -247 92 -313 91 -540 0 -239 -25 -411 -91 -618 -150 -475 -547 -824
-1063 -934 -124 -26 -301 -24 -403 5 -158 45 -342 161 -450 285 -170 193 -318
493 -402 811 -38 143 -43 192 -21 222 14 18 18 16 81 -49 221 -223 490 -317
740 -258 114 27 178 68 230 147 87 131 149 368 175 669 21 247 28 502 20 680
-22 437 -31 596 -40 675 -29 258 -44 431 -42 479 5 109 98 327 194 455 92 123
224 206 383 243 122 28 404 25 540 -6 156 -35 168 -36 187 -14 9 10 31 54 48
98 48 122 124 270 195 375 159 240 752 733 1002 835 85 34 269 64 463 75 191
11 296 29 418 72 102 36 296 131 402 198 41 25 101 62 133 81 98 57 243 184
266 232 12 24 21 49 21 56 0 7 17 38 39 69 41 61 103 181 116 222 14 48 435
842 581 1098 273 476 488 777 697 979 261 251 705 476 1101 555 93 19 144 23
311 23 198 0 202 -1 386 -42 213 -48 218 -47 331 15 40 23 78 40 83 38 6 -1
10 -41 10 -90z"/>
</g>
</svg>
