<svg id="Layer_1" data-name="Layer 1" xmlns="http://www.w3.org/2000/svg" viewBox="0 0 1920 1080"><title>testando  cópia 34</title><path fill="#ffffff" d="M927,461.77h59.17v5.76H933.21V502h47.52v5.76H933.21v38H927Z"/><path fill="#ffffff" d="M1005.69,461.77h6.24V540h49.32v5.76h-55.57Z"/><path fill="#ffffff" d="M1111.29,461.17h6l39.12,84.61h-6.84l-10.68-23.52h-49.57l-10.68,23.52h-6.48Zm25,55.45L1114.17,468,1092,516.61Z"/><path fill="#ffffff" d="M1167,533.53l4.08-4.68c9.24,8.64,17.76,12.48,30.12,12.48,12.6,0,21.24-7.08,21.24-16.68v-.24c0-8.88-4.68-14-23.76-17.88-20.28-4.2-28.32-10.8-28.32-23.64v-.24c0-12.48,11.4-22.08,27-22.08,12.12,0,20.28,3.36,28.8,10.2l-4,4.92c-8-6.84-15.84-9.48-25.08-9.48-12.48,0-20.52,7.2-20.52,15.84v.24c0,9,4.56,14.16,24.48,18.36,19.56,4,27.6,10.8,27.6,23.16v.24c0,13.56-11.64,22.92-27.84,22.92C1187.37,547,1177,542.53,1167,533.53Z"/><path fill="#ffffff" d="M1249.17,461.77h6.24v38.88h53.77V461.77h6.24v84h-6.24V506.41h-53.77v39.36h-6.24Z"/><path fill="#ffffff" d="M1337.61,533.29l13-15.48c8.52,6.72,17.64,10.08,27.24,10.08,6.36,0,9.72-2,9.72-5.76v-.24c0-3.6-2.76-5.28-14.28-8.16-17.76-4.08-31.68-9-31.68-26.28v-.24c0-15.72,12.36-26.88,32.52-26.88,14.4,0,25.44,3.84,34.56,11.16L1397,487.93c-7.68-5.64-16-8.28-23.52-8.28-5.64,0-8.4,2.16-8.4,5.4v.24c0,3.72,2.88,5.64,14.64,8.16,19.2,4.2,31.2,10.44,31.2,26.16v.24c0,17.16-13.56,27.36-34,27.36C1362,547.21,1348.17,542.53,1337.61,533.29Z"/><path fill="#ffffff" d="M1454.49,461.17h22.44l35.76,84.61h-25l-6-15.12h-32.52l-6,15.12h-24.36Zm20.4,51.37-9.36-23.76-9.48,23.76Z"/><path fill="#ffffff" d="M1525.89,461.77h67.21v20.4h-43.92v14.28h39.72v19.32h-39.72v30h-23.28Z"/><path fill="#ffffff" d="M1608.81,461.77h67.57v19.68h-44.52v12.84h40.32v18.36h-40.32V526H1677v19.8h-68.17Z"/><path fill="#ffffff" d="M958.14,639.43c0,9.41-6.56,15.43-15.82,15.43H930a2.78,2.78,0,0,1-3-2.78V605.18a2.78,2.78,0,0,1,3-2.78h12.34c9.26,0,15.82,6,15.82,15.43Zm-25.15,10h9.34a9.58,9.58,0,0,0,9.8-10v-21.6a9.58,9.58,0,0,0-9.8-10H933Z"/><path fill="#ffffff" d="M973,654.86a2.78,2.78,0,0,1-3-2.78V605a3,3,0,0,1,6,0v44.44h17.36a2.7,2.7,0,0,1,0,5.4Z"/><path fill="#ffffff" d="M1003.49,652.24V605.18a2.74,2.74,0,0,1,3-2.78h10.11c10.18,0,16.74,6.17,16.74,16.12,0,10.34-6.63,16.12-16.74,16.12h-7.1v17.59a3,3,0,0,1-6,0Zm13.12-44.44h-7.1v21.45h7.1c6.94,0,10.72-4.17,10.72-10.72S1023.55,607.8,1016.61,607.8Z"/><path fill="#ffffff" d="M1062.58,627.16a5.13,5.13,0,1,1-5,5.13A4.82,4.82,0,0,1,1062.58,627.16Z"/><path fill="#ffffff" d="M1124,639.43c0,9.41-6.56,15.43-15.82,15.43h-12.34a2.78,2.78,0,0,1-3-2.78V605.18a2.78,2.78,0,0,1,3-2.78h12.34c9.26,0,15.82,6,15.82,15.43Zm-25.15,10h9.34a9.58,9.58,0,0,0,9.8-10v-21.6a9.58,9.58,0,0,0-9.8-10h-9.34Z"/><path fill="#ffffff" d="M1160.29,652.94a2.15,2.15,0,0,1-2.39,2.24,3.31,3.31,0,0,1-2.39-1.54c-.54-.62-.85-1.08-1.54-1.08a4.39,4.39,0,0,0-2.16.93,11.29,11.29,0,0,1-6.17,2c-6.94,0-12.19-4.71-12.19-11.8,0-7.41,5.94-11.11,13.58-11.11h7.41v-3.24a7.78,7.78,0,0,0-7.56-8,13.06,13.06,0,0,0-5.94,1.7,5.88,5.88,0,0,1-2.31.77,2.6,2.6,0,0,1-2.62-2.62,3.24,3.24,0,0,1,2.08-2.78,20.13,20.13,0,0,1,8.8-2.31,13.25,13.25,0,0,1,13.42,13.27Zm-21.06-9.26c0,4.24,3.24,6.56,7.56,6.56s7.64-2.47,7.64-6.79v-6.09H1147C1142.54,637.35,1139.23,639.51,1139.23,643.68Z"/><path fill="#ffffff" d="M1166.84,619.53a2.2,2.2,0,0,1,2-2.24l5.17-.54h.08l.93-8a2.52,2.52,0,0,1,2.55-2.08,2.17,2.17,0,0,1,2.39,2.16v7.87h7.33a2.39,2.39,0,0,1,2.55,2.55,2.35,2.35,0,0,1-2.55,2.55H1180v23.61c0,3,2,5,4.4,5,1,0,2.31-.62,3.39-.62a2.25,2.25,0,0,1,2.31,2.55c0,2.16-3,3.16-6,3.16a9.69,9.69,0,0,1-10-10.11V621.77h-5.25A2.1,2.1,0,0,1,1166.84,619.53Z"/><path fill="#ffffff" d="M1223,652.94a2.15,2.15,0,0,1-2.39,2.24,3.31,3.31,0,0,1-2.39-1.54c-.54-.62-.85-1.08-1.54-1.08a4.39,4.39,0,0,0-2.16.93,11.29,11.29,0,0,1-6.17,2c-6.94,0-12.19-4.71-12.19-11.8,0-7.41,5.94-11.11,13.58-11.11h7.41v-3.24a7.78,7.78,0,0,0-7.56-8,13.06,13.06,0,0,0-5.94,1.7,5.88,5.88,0,0,1-2.31.77,2.6,2.6,0,0,1-2.62-2.62,3.24,3.24,0,0,1,2.08-2.78,20.13,20.13,0,0,1,8.8-2.31A13.25,13.25,0,0,1,1223,629.33Zm-21.06-9.26c0,4.24,3.24,6.56,7.56,6.56s7.64-2.47,7.64-6.79v-6.09h-7.41C1205.26,637.35,1201.94,639.51,1201.94,643.68Z"/><path fill="#ffffff" d="M1255.63,654.86a2.78,2.78,0,0,1-3-2.78V605a3,3,0,0,1,6,0v44.44H1276a2.7,2.7,0,0,1,0,5.4Z"/><path fill="#ffffff" d="M1311.41,629.48v12.58a13.53,13.53,0,0,1-13.66,13.42c-7.1,0-13.66-5.25-13.66-13.42V629.48a13.38,13.38,0,0,1,13.66-13.42A13.53,13.53,0,0,1,1311.41,629.48Zm-5.86,0a7.8,7.8,0,1,0-15.58,0v12.58a7.86,7.86,0,0,0,7.79,8.18,8,8,0,0,0,7.79-8.18Z"/><path fill="#ffffff" d="M1326.37,627.55c0,3.39,4.32,4.63,7.64,5.63,4.94,1.47,10.57,3.55,10.57,10.8,0,6.48-5.09,11.5-12.58,11.5a19.08,19.08,0,0,1-9-2.24c-1.54-.77-2.24-1.62-2.24-3a2.62,2.62,0,0,1,2.7-2.62,5.23,5.23,0,0,1,2.55.85,14.22,14.22,0,0,0,6,1.77c4.09,0,6.79-2.78,6.79-6.1,0-3.55-3.47-5-7.56-6.17s-10.57-3.63-10.57-10.42c0-6.4,5.86-11.5,12.5-11.5a18,18,0,0,1,8.41,2.08,3,3,0,0,1,2,2.78,2.59,2.59,0,0,1-2.62,2.55,4.69,4.69,0,0,1-1.93-.62,12.69,12.69,0,0,0-5.86-1.54C1329.53,621.3,1326.37,624.08,1326.37,627.55Z"/><path fill="#ffffff" d="M1357.69,627.55c0,3.39,4.32,4.63,7.64,5.63,4.94,1.47,10.57,3.55,10.57,10.8,0,6.48-5.09,11.5-12.58,11.5a19.08,19.08,0,0,1-9-2.24c-1.54-.77-2.24-1.62-2.24-3a2.62,2.62,0,0,1,2.7-2.62,5.23,5.23,0,0,1,2.55.85,14.22,14.22,0,0,0,6,1.77c4.09,0,6.79-2.78,6.79-6.1,0-3.55-3.47-5-7.56-6.17S1352,634.34,1352,627.55c0-6.4,5.86-11.5,12.5-11.5a18,18,0,0,1,8.41,2.08,3,3,0,0,1,2,2.78,2.59,2.59,0,0,1-2.62,2.55,4.69,4.69,0,0,1-1.93-.62,12.69,12.69,0,0,0-5.86-1.54C1360.85,621.3,1357.69,624.08,1357.69,627.55Z"/><path fill="#ffffff" d="M1403.51,652.24V605.18a2.74,2.74,0,0,1,3-2.78h10.11c10.18,0,16.74,6.17,16.74,16.12,0,10.34-6.63,16.12-16.74,16.12h-7.1v17.59a3,3,0,0,1-6,0Zm13.12-44.44h-7.1v21.45h7.1c6.94,0,10.72-4.17,10.72-10.72S1423.57,607.8,1416.63,607.8Z"/><path fill="#ffffff" d="M1448,652.24a2.94,2.94,0,0,1-5.86,0V618.76a2.27,2.27,0,0,1,2.39-2.24,3.49,3.49,0,0,1,2.55,1.7c.54.62,1,1.23,1.7,1.23a4.63,4.63,0,0,0,1.93-1c2.39-1.54,3.63-2.31,5.86-2.31a2.74,2.74,0,1,1,0,5.48h-1.08c-3.86,0-7.48,2.7-7.48,8.1Z"/><path fill="#ffffff" d="M1471.32,637.35v4.71a7.89,7.89,0,0,0,7.95,8.18,11.87,11.87,0,0,0,6.4-2.08,4.08,4.08,0,0,1,2.31-.85,2.65,2.65,0,0,1,2.55,2.7c0,1.23-.69,2-1.93,2.78a17.4,17.4,0,0,1-9.33,2.7c-7.95,0-13.81-5.63-13.81-13.42V629.25c0-7.79,6.63-13.19,13.5-13.19s13.5,5.4,13.5,13.19v5.09a2.94,2.94,0,0,1-3.09,3Zm15.28-8.1a7.78,7.78,0,0,0-7.64-7.95,7.63,7.63,0,0,0-7.64,7.95v3.32h15.28Z"/><path fill="#ffffff" d="M1510.43,652.55l-11.26-32.25a3.4,3.4,0,0,1-.23-1.16,2.85,2.85,0,0,1,3-2.62,2.7,2.7,0,0,1,2.78,2l8.1,25,.93,3.09.93-3.09,8.1-25a2.7,2.7,0,0,1,2.78-2,2.85,2.85,0,0,1,3,2.62,3.42,3.42,0,0,1-.23,1.16l-11.26,32.25a3.46,3.46,0,0,1-6.63,0Z"/><path fill="#ffffff" d="M1541.52,637.35v4.71a7.89,7.89,0,0,0,7.95,8.18,11.87,11.87,0,0,0,6.4-2.08,4.08,4.08,0,0,1,2.31-.85,2.65,2.65,0,0,1,2.55,2.7c0,1.23-.69,2-1.93,2.78a17.4,17.4,0,0,1-9.33,2.7c-7.95,0-13.81-5.63-13.81-13.42V629.25c0-7.79,6.63-13.19,13.5-13.19s13.5,5.4,13.5,13.19v5.09a2.94,2.94,0,0,1-3.09,3Zm15.28-8.1a7.78,7.78,0,0,0-7.64-7.95,7.63,7.63,0,0,0-7.64,7.95v3.32h15.28Z"/><path fill="#ffffff" d="M1578.55,652.24a2.94,2.94,0,0,1-5.86,0V618.84a2.23,2.23,0,0,1,2.32-2.31,3,3,0,0,1,2.39,1.39c.54.62,1,1.23,1.7,1.23a3.68,3.68,0,0,0,1.93-.77,13.09,13.09,0,0,1,7.33-2.31c5.86,0,11.5,5.4,11.5,13.35v22.84a2.94,2.94,0,0,1-5.86,0V629.4c0-4.55-3.24-8.1-7.71-8.1s-7.72,3.47-7.72,8.1Z"/><path fill="#ffffff" d="M1606.55,619.53a2.2,2.2,0,0,1,2-2.24l5.17-.54h.08l.93-8a2.52,2.52,0,0,1,2.55-2.08,2.17,2.17,0,0,1,2.39,2.16v7.87H1627a2.39,2.39,0,0,1,2.55,2.55,2.35,2.35,0,0,1-2.55,2.55h-7.33v23.61c0,3,2,5,4.4,5,1,0,2.32-.62,3.39-.62a2.25,2.25,0,0,1,2.32,2.55c0,2.16-3,3.16-6,3.16a9.69,9.69,0,0,1-10-10.11V621.77h-5.25A2.1,2.1,0,0,1,1606.55,619.53Z"/><path fill="#ffffff" d="M1641,600.47a3.72,3.72,0,0,1,3.78,3.7,3.67,3.67,0,0,1-3.78,3.7,3.72,3.72,0,0,1-3.78-3.7A3.77,3.77,0,0,1,1641,600.47Zm2.93,51.77a2.94,2.94,0,0,1-5.86,0V619.3a2.94,2.94,0,0,1,5.86,0Z"/><path fill="#ffffff" d="M1682.31,629.48v12.58a13.53,13.53,0,0,1-13.66,13.42c-7.1,0-13.66-5.25-13.66-13.42V629.48a13.38,13.38,0,0,1,13.66-13.42A13.53,13.53,0,0,1,1682.31,629.48Zm-5.86,0a7.8,7.8,0,1,0-15.58,0v12.58a7.86,7.86,0,0,0,7.79,8.18,8,8,0,0,0,7.79-8.18Z"/><path fill="#ffffff" d="M1699.12,652.24a2.94,2.94,0,0,1-5.86,0V618.84a2.23,2.23,0,0,1,2.32-2.31,3,3,0,0,1,2.39,1.39c.54.62,1,1.23,1.7,1.23a3.68,3.68,0,0,0,1.93-.77,13.09,13.09,0,0,1,7.33-2.31c5.86,0,11.5,5.4,11.5,13.35v22.84a2.94,2.94,0,0,1-5.86,0V629.4c0-4.55-3.24-8.1-7.71-8.1s-7.72,3.47-7.72,8.1Z"/><path fill="#ffffff" d="M595.54,520.86c-27.27,60.15,94.34,47,101,93.25-6.24-53.13-109.84-39.81-101-93.25Zm87.11-23.72a145.3,145.3,0,0,0-29.43-23.38c12.61,10.76,17.83,21.36,17.66,32.13,4,1.36,7.91,2.84,12,4.33,2,.73,2.5-1.24,2.44-2.45-.21-3.89,0-8-2.62-10.63ZM507,737.46c14,29.26,46,42.39,52.92,42.87-36.44-27-77-111.85-37.49-238.49C488.07,609.63,490.85,703.66,507,737.46ZM634.86,428.59c4.09-12.31,14.47-25.21,14.47-25.21-26.49,5.89-39.65,24.36-39.65,24.36-47.84-76.2-220.58-47.11-220.58,71.34,2.61-8.68,17.06-29.67,35-26.53-.24,63.29-82.46,61.1-92.35,49.75,27.72,31.83,51.33,30.51,70.16,21.41-22.75,38.51-63.11,49.73-98.47,28.83a85.3,85.3,0,0,0,22.3,36.3c26.43,25,59.67,18.43,79.41-12C462.6,508,491.6,482.88,530.29,481.69c-113.39,33.93-83,282.44-246.21,152.46A549.23,549.23,0,0,1,275,532.24V389.55a22.13,22.13,0,0,1,13.63-20.41l254.22-105.3,254.22,105.3a22.13,22.13,0,0,1,13.64,20.42V532.24c0,78-14.25,146.22-42.35,206.27a403.31,403.31,0,0,1-47.5,77.66c-39.09,0-225.2-139.54-136.29-234.87,16.12,34.36,64.92,11.47,103.19,51.78,19.5,27.06,47.45,16.88,64-.66C765.1,618.29,766.62,596,746.65,578c-21.68-17.81-33-35.43-45.31-62.6,10.27-23.31-17.77-41.8-38.13-55.36-4.51-10.13-3.54-14.59-1.55-20.6,4.63-13.93,16.38-28.54,16.38-28.54C650.55,417,635.8,435.06,633.51,438,633.07,434.46,633.8,431.77,634.86,428.59Z"/></svg>