<svg width="355" height="157" viewBox="0 0 355 157" fill="none" xmlns="http://www.w3.org/2000/svg">
<g clip-path="url(#clip0_2_151)">
<path d="M90.73 72.8101C83.02 89.8101 117.44 86.1001 119.33 99.2001C117.56 84.2001 88.24 87.9301 90.73 72.8101ZM115.39 66.05C112.911 63.4928 110.111 61.2676 107.06 59.43C110.63 62.43 112.06 65.4301 112.06 68.5301C113.18 68.91 114.3 69.33 115.45 69.75C116 69.96 116.15 69.4 116.13 69.0601C116.13 67.9601 116.13 66.8 115.39 66.0601V66.05ZM65.69 134.05C69.69 142.33 78.69 146.05 80.69 146.18C70.37 138.54 58.9 114.52 70.07 78.68C60.31 97.93 61.1 124.55 65.69 134.12V134.05ZM101.86 46.62C102.882 44.0713 104.277 41.6886 106 39.55C101.58 40.5031 97.6176 42.9375 94.77 46.4501C81.19 24.8801 32.3 33.11 32.3 66.64C33.03 64.18 37.12 58.2401 42.19 59.1301C42.13 77.05 18.85 76.4301 16.05 73.2101C23.9 82.2101 30.58 81.8501 35.91 79.2701C29.47 90.1701 18.05 93.35 7.99999 87.43C9.19874 91.3358 11.37 94.8731 14.31 97.7101C21.79 104.78 31.2 102.93 36.79 94.3C53.1 69.1701 61.31 62.05 72.26 61.72C40.17 71.32 48.76 141.72 2.56999 104.87C0.817628 95.3644 -0.0427781 85.7158 -6.5919e-06 76.05V35.64C-0.00235191 34.8189 0.15818 34.0055 0.472298 33.2468C0.786416 32.4881 1.24788 31.7992 1.82999 31.22C2.3999 30.6386 3.07975 30.1763 3.82999 29.86L75.82 0.0500488L147.82 29.86C148.572 30.1729 149.253 30.6357 149.82 31.22C150.402 31.7992 150.864 32.4881 151.178 33.2468C151.492 34.0055 151.652 34.8189 151.65 35.64V76.05C151.65 98.11 147.65 117.44 139.65 134.43C136.008 142.246 131.496 149.626 126.2 156.43C115.13 156.43 62.45 116.93 87.62 89.94C92.18 99.67 106 93.19 116.83 104.6C122.35 112.26 130.26 109.38 134.95 104.41C138.72 100.41 139.15 94.11 133.5 89C127.36 84 124.15 79.0001 120.67 71.2801C123.58 64.6801 115.67 59.4501 109.88 55.6101C108.6 52.7401 108.88 51.48 109.44 49.78C110.577 46.8714 112.141 44.1482 114.08 41.7001C109.134 42.778 104.693 45.4862 101.47 49.39C101.38 48.4717 101.513 47.5452 101.86 46.69V46.62Z" fill="#0064B1"/>
<path d="M185.068 79.0701H206.194V77.0541H187.252V65.2521H204.094V63.2361H187.252V51.6861H205.984V49.6701H185.068V79.0701ZM213.205 79.0701H215.389V68.1081H223.327C229.501 68.1081 234.793 64.9581 234.793 58.7421V58.6581C234.793 52.9881 230.341 49.6701 223.873 49.6701H213.205V79.0701ZM215.389 66.0921V51.6861H223.705C228.955 51.6861 232.609 54.1221 232.609 58.7841V58.8681C232.609 63.2781 228.913 66.0921 223.453 66.0921H215.389Z" fill="#0064B1"/>
<path d="M250.877 79.4901C257.219 79.4901 261.671 76.2141 261.671 70.3761V70.2921C261.671 65.1681 258.311 63.0681 252.347 61.4721C247.265 60.1281 246.005 59.5821 246.005 57.6081V57.5241C246.005 56.0541 247.265 54.9621 249.785 54.9621C252.305 54.9621 254.783 56.0541 257.429 57.8601L260.789 52.9881C257.765 50.5941 254.195 49.2501 249.869 49.2501C243.821 49.2501 239.579 52.7781 239.579 58.1121V58.1961C239.579 63.9921 243.359 65.7141 249.323 67.1841C254.237 68.4021 255.245 69.2841 255.245 70.9221V71.0061C255.245 72.7281 253.691 73.7781 251.003 73.7781C247.643 73.7781 244.913 72.3921 242.225 70.2081L238.403 74.7861C241.931 77.9781 246.383 79.4901 250.877 79.4901ZM281.565 79.5741C290.637 79.5741 297.231 72.7281 297.231 64.3701V64.2861C297.231 55.9281 290.721 49.1661 281.649 49.1661C272.577 49.1661 265.983 56.0121 265.983 64.3701V64.4541C265.983 72.8121 272.493 79.5741 281.565 79.5741ZM281.649 73.6101C276.441 73.6101 272.745 69.4101 272.745 64.3701V64.2861C272.745 59.2461 276.357 55.1301 281.565 55.1301C286.773 55.1301 290.469 59.3301 290.469 64.3701V64.4541C290.469 69.4941 286.857 73.6101 281.649 73.6101ZM302.968 79.0701H309.436V67.6881H323.464V61.8081H309.436V55.5501H325.354V49.6701H302.968V79.0701ZM337.377 79.0701H343.845V55.6341H352.791V49.6701H328.431V55.6341H337.377V79.0701Z" fill="#003E7B"/>
<path d="M189.808 96.37C189.808 94.418 188.448 93.17 186.528 93.17H183.968C183.616 93.17 183.344 93.394 183.344 93.746V103.474C183.344 103.826 183.616 104.05 183.968 104.05H186.528C188.448 104.05 189.808 102.802 189.808 100.85V96.37ZM184.592 94.29H186.528C187.616 94.29 188.56 95.074 188.56 96.37V100.85C188.56 102.146 187.616 102.93 186.528 102.93H184.592V94.29ZM197.114 104.05C197.418 104.05 197.642 103.858 197.642 103.49C197.642 103.122 197.418 102.93 197.114 102.93H193.514V93.714C193.514 93.362 193.258 93.138 192.89 93.138C192.522 93.138 192.266 93.362 192.266 93.714V103.474C192.266 103.81 192.522 104.05 192.89 104.05H197.114ZM199.827 104.082C200.211 104.082 200.451 103.858 200.451 103.506V99.858H201.923C204.019 99.858 205.395 98.658 205.395 96.514C205.395 94.45 204.035 93.17 201.923 93.17H199.827C199.459 93.17 199.203 93.394 199.203 93.746V103.506C199.203 103.858 199.443 104.082 199.827 104.082ZM204.147 96.514C204.147 97.874 203.363 98.738 201.923 98.738H200.451V94.29H201.923C203.363 94.29 204.147 95.154 204.147 96.514ZM213.264 100.562C213.552 100.562 213.776 100.322 213.776 100.018C213.776 99.714 213.552 99.474 213.264 99.474H210.384C210.096 99.474 209.872 99.698 209.872 100.018C209.872 100.338 210.096 100.562 210.384 100.562H213.264ZM225.761 96.37C225.761 94.418 224.401 93.17 222.481 93.17H219.921C219.569 93.17 219.297 93.394 219.297 93.746V103.474C219.297 103.826 219.569 104.05 219.921 104.05H222.481C224.401 104.05 225.761 102.802 225.761 100.85V96.37ZM220.545 94.29H222.481C223.569 94.29 224.513 95.074 224.513 96.37V100.85C224.513 102.146 223.569 102.93 222.481 102.93H220.545V94.29ZM233.275 98.754C233.275 97.17 231.995 96.002 230.491 96.002C229.787 96.002 229.099 96.258 228.667 96.482C228.427 96.61 228.235 96.786 228.235 97.058C228.235 97.346 228.459 97.602 228.779 97.602C228.939 97.602 229.131 97.506 229.259 97.442C229.611 97.266 230.011 97.09 230.491 97.09C231.403 97.09 232.059 97.874 232.059 98.754V99.426H230.523C228.939 99.426 227.707 100.194 227.707 101.73C227.707 103.202 228.795 104.178 230.235 104.178C230.795 104.178 231.163 103.97 231.515 103.762C231.675 103.666 231.803 103.57 231.963 103.57C232.107 103.57 232.171 103.666 232.283 103.794C232.411 103.954 232.571 104.114 232.779 104.114C233.067 104.114 233.275 103.954 233.275 103.65V98.754ZM230.523 100.418H232.059V101.682C232.059 102.578 231.355 103.09 230.475 103.09C229.579 103.09 228.907 102.61 228.907 101.73C228.907 100.866 229.595 100.418 230.523 100.418ZM235.049 97.186H236.137V102.082C236.137 103.314 237.017 104.178 238.201 104.178C238.825 104.178 239.449 103.97 239.449 103.522C239.449 103.218 239.289 102.994 238.969 102.994C238.745 102.994 238.473 103.122 238.265 103.122C237.769 103.122 237.353 102.706 237.353 102.082V97.186H238.873C239.193 97.186 239.401 96.994 239.401 96.658C239.401 96.338 239.193 96.13 238.873 96.13H237.353V94.498C237.353 94.226 237.145 94.05 236.857 94.05C236.585 94.05 236.361 94.242 236.329 94.482L236.137 96.146H236.121L235.049 96.258C234.841 96.274 234.633 96.45 234.633 96.722C234.633 97.01 234.841 97.186 235.049 97.186ZM246.275 98.754C246.275 97.17 244.995 96.002 243.491 96.002C242.787 96.002 242.099 96.258 241.667 96.482C241.427 96.61 241.235 96.786 241.235 97.058C241.235 97.346 241.459 97.602 241.779 97.602C241.939 97.602 242.131 97.506 242.259 97.442C242.611 97.266 243.011 97.09 243.491 97.09C244.403 97.09 245.059 97.874 245.059 98.754V99.426H243.523C241.939 99.426 240.707 100.194 240.707 101.73C240.707 103.202 241.795 104.178 243.235 104.178C243.795 104.178 244.163 103.97 244.515 103.762C244.675 103.666 244.803 103.57 244.963 103.57C245.107 103.57 245.171 103.666 245.283 103.794C245.411 103.954 245.571 104.114 245.779 104.114C246.067 104.114 246.275 103.954 246.275 103.65V98.754ZM243.523 100.418H245.059V101.682C245.059 102.578 244.355 103.09 243.475 103.09C242.579 103.09 241.907 102.61 241.907 101.73C241.907 100.866 242.595 100.418 243.523 100.418ZM257.255 104.05C257.559 104.05 257.783 103.858 257.783 103.49C257.783 103.122 257.559 102.93 257.255 102.93H253.655V93.714C253.655 93.362 253.399 93.138 253.031 93.138C252.663 93.138 252.407 93.362 252.407 93.714V103.474C252.407 103.81 252.663 104.05 253.031 104.05H257.255ZM261.762 96.002C260.29 96.002 258.93 97.106 258.93 98.786V101.394C258.93 103.09 260.29 104.178 261.762 104.178C263.234 104.178 264.594 103.026 264.594 101.394V98.786C264.594 97.154 263.234 96.002 261.762 96.002ZM263.378 101.394C263.378 102.338 262.658 103.09 261.762 103.09C260.866 103.09 260.146 102.37 260.146 101.394V98.786C260.146 97.826 260.866 97.09 261.762 97.09C262.658 97.09 263.378 97.826 263.378 98.786V101.394ZM269.113 97.09C269.625 97.09 269.945 97.234 270.329 97.41C270.473 97.474 270.585 97.538 270.729 97.538C271.033 97.538 271.273 97.298 271.273 97.01C271.273 96.738 271.113 96.562 270.857 96.434C270.409 96.194 269.801 96.002 269.113 96.002C267.737 96.002 266.521 97.058 266.521 98.386C266.521 99.794 267.865 100.306 268.713 100.546C269.561 100.786 270.281 101.09 270.281 101.826C270.281 102.514 269.721 103.09 268.873 103.09C268.409 103.09 267.897 102.866 267.625 102.722C267.433 102.61 267.257 102.546 267.097 102.546C266.809 102.546 266.537 102.754 266.537 103.09C266.537 103.378 266.681 103.554 267.001 103.714C267.609 104.018 268.169 104.178 268.873 104.178C270.425 104.178 271.481 103.138 271.481 101.794C271.481 100.29 270.313 99.858 269.289 99.554C268.601 99.346 267.705 99.09 267.705 98.386C267.705 97.666 268.361 97.09 269.113 97.09ZM275.613 97.09C276.125 97.09 276.445 97.234 276.829 97.41C276.973 97.474 277.085 97.538 277.229 97.538C277.533 97.538 277.773 97.298 277.773 97.01C277.773 96.738 277.613 96.562 277.357 96.434C276.909 96.194 276.301 96.002 275.613 96.002C274.237 96.002 273.021 97.058 273.021 98.386C273.021 99.794 274.365 100.306 275.213 100.546C276.061 100.786 276.781 101.09 276.781 101.826C276.781 102.514 276.221 103.09 275.373 103.09C274.909 103.09 274.397 102.866 274.125 102.722C273.933 102.61 273.757 102.546 273.597 102.546C273.309 102.546 273.037 102.754 273.037 103.09C273.037 103.378 273.181 103.554 273.501 103.714C274.109 104.018 274.669 104.178 275.373 104.178C276.925 104.178 277.981 103.138 277.981 101.794C277.981 100.29 276.813 99.858 275.789 99.554C275.101 99.346 274.205 99.09 274.205 98.386C274.205 97.666 274.861 97.09 275.613 97.09ZM284.327 104.082C284.711 104.082 284.951 103.858 284.951 103.506V99.858H286.423C288.519 99.858 289.895 98.658 289.895 96.514C289.895 94.45 288.535 93.17 286.423 93.17H284.327C283.959 93.17 283.703 93.394 283.703 93.746V103.506C283.703 103.858 283.943 104.082 284.327 104.082ZM288.647 96.514C288.647 97.874 287.863 98.738 286.423 98.738H284.951V94.29H286.423C287.863 94.29 288.647 95.154 288.647 96.514ZM292.934 98.834C292.934 97.714 293.686 97.154 294.486 97.154H294.71C295.062 97.154 295.302 96.946 295.302 96.578C295.302 96.21 295.046 96.018 294.71 96.018C294.246 96.018 293.99 96.178 293.494 96.498C293.35 96.594 293.206 96.706 293.094 96.706C292.95 96.706 292.854 96.578 292.742 96.45C292.614 96.29 292.454 96.098 292.214 96.098C291.974 96.098 291.718 96.258 291.718 96.562V103.506C291.718 103.858 291.958 104.082 292.326 104.082C292.694 104.082 292.934 103.858 292.934 103.506V98.834ZM301.515 100.418C301.899 100.418 302.155 100.146 302.155 99.794V98.738C302.155 97.122 300.779 96.002 299.355 96.002C297.931 96.002 296.555 97.122 296.555 98.738V101.394C296.555 103.01 297.771 104.178 299.419 104.178C300.251 104.178 300.891 103.906 301.355 103.618C301.611 103.458 301.755 103.298 301.755 103.042C301.755 102.738 301.515 102.482 301.227 102.482C301.051 102.482 300.923 102.546 300.747 102.658C300.443 102.85 299.995 103.09 299.419 103.09C298.507 103.09 297.771 102.386 297.771 101.394V100.418H301.515ZM300.939 99.426H297.771V98.738C297.771 97.778 298.475 97.09 299.355 97.09C300.235 97.09 300.939 97.826 300.939 98.738V99.426ZM306.57 104.082C306.954 104.082 307.146 103.874 307.258 103.57L309.594 96.882C309.626 96.786 309.642 96.722 309.642 96.642C309.642 96.354 309.37 96.098 309.018 96.098C308.714 96.098 308.522 96.258 308.442 96.514L306.762 101.698L306.57 102.338L306.378 101.698L304.698 96.514C304.618 96.258 304.426 96.098 304.122 96.098C303.77 96.098 303.498 96.354 303.498 96.642C303.498 96.722 303.514 96.786 303.546 96.882L305.882 103.57C305.994 103.874 306.186 104.082 306.57 104.082ZM316.078 100.418C316.462 100.418 316.718 100.146 316.718 99.794V98.738C316.718 97.122 315.342 96.002 313.918 96.002C312.494 96.002 311.118 97.122 311.118 98.738V101.394C311.118 103.01 312.334 104.178 313.982 104.178C314.814 104.178 315.454 103.906 315.918 103.618C316.174 103.458 316.318 103.298 316.318 103.042C316.318 102.738 316.078 102.482 315.79 102.482C315.614 102.482 315.486 102.546 315.31 102.658C315.006 102.85 314.558 103.09 313.982 103.09C313.07 103.09 312.334 102.386 312.334 101.394V100.418H316.078ZM315.502 99.426H312.334V98.738C312.334 97.778 313.038 97.09 313.918 97.09C314.798 97.09 315.502 97.826 315.502 98.738V99.426ZM320.011 98.77C320.011 97.81 320.667 97.09 321.611 97.09C322.539 97.09 323.211 97.826 323.211 98.77V103.506C323.211 103.858 323.451 104.082 323.819 104.082C324.187 104.082 324.427 103.858 324.427 103.506V98.77C324.427 97.122 323.259 96.002 322.043 96.002C321.355 96.002 320.875 96.258 320.523 96.482C320.347 96.594 320.235 96.642 320.123 96.642C319.979 96.642 319.883 96.514 319.771 96.386C319.643 96.226 319.499 96.098 319.275 96.098C319.003 96.098 318.795 96.29 318.795 96.578V103.506C318.795 103.858 319.035 104.082 319.403 104.082C319.771 104.082 320.011 103.858 320.011 103.506V98.77ZM326.236 97.186H327.324V102.082C327.324 103.314 328.204 104.178 329.388 104.178C330.012 104.178 330.636 103.97 330.636 103.522C330.636 103.218 330.476 102.994 330.156 102.994C329.932 102.994 329.66 103.122 329.452 103.122C328.956 103.122 328.54 102.706 328.54 102.082V97.186H330.06C330.38 97.186 330.588 96.994 330.588 96.658C330.588 96.338 330.38 96.13 330.06 96.13H328.54V94.498C328.54 94.226 328.332 94.05 328.044 94.05C327.772 94.05 327.548 94.242 327.516 94.482L327.324 96.146H327.308L326.236 96.258C326.028 96.274 325.82 96.45 325.82 96.722C325.82 97.01 326.028 97.186 326.236 97.186ZM333.559 96.674C333.559 96.322 333.319 96.098 332.951 96.098C332.583 96.098 332.343 96.322 332.343 96.674V103.506C332.343 103.858 332.583 104.082 332.951 104.082C333.319 104.082 333.559 103.858 333.559 103.506V96.674ZM332.167 93.538C332.167 94.002 332.551 94.306 332.951 94.306C333.367 94.306 333.735 94.002 333.735 93.538C333.735 93.074 333.351 92.77 332.951 92.77C332.567 92.77 332.167 93.074 332.167 93.538ZM338.7 96.002C337.228 96.002 335.868 97.106 335.868 98.786V101.394C335.868 103.09 337.228 104.178 338.7 104.178C340.172 104.178 341.532 103.026 341.532 101.394V98.786C341.532 97.154 340.172 96.002 338.7 96.002ZM340.316 101.394C340.316 102.338 339.596 103.09 338.7 103.09C337.804 103.09 337.084 102.37 337.084 101.394V98.786C337.084 97.826 337.804 97.09 338.7 97.09C339.596 97.09 340.316 97.826 340.316 98.786V101.394ZM345.027 98.77C345.027 97.81 345.683 97.09 346.627 97.09C347.555 97.09 348.227 97.826 348.227 98.77V103.506C348.227 103.858 348.467 104.082 348.835 104.082C349.203 104.082 349.443 103.858 349.443 103.506V98.77C349.443 97.122 348.275 96.002 347.059 96.002C346.371 96.002 345.891 96.258 345.539 96.482C345.363 96.594 345.251 96.642 345.139 96.642C344.995 96.642 344.899 96.514 344.787 96.386C344.659 96.226 344.515 96.098 344.291 96.098C344.019 96.098 343.811 96.29 343.811 96.578V103.506C343.811 103.858 344.051 104.082 344.419 104.082C344.787 104.082 345.027 103.858 345.027 103.506V98.77Z" fill="#0064B1"/>
</g>
<defs>
<clipPath id="clip0_2_151">
<rect width="354.71" height="156.35" fill="white" transform="translate(0 0.0500488)"/>
</clipPath>
</defs>
</svg>
